<svg width="718" height="149" viewBox="0 0 718 149" fill="none" xmlns="http://www.w3.org/2000/svg">
<g clip-path="url(#clip0)">
<path d="M65.8137 147.054L3.59061 83.2499C-1.19687 78.3322 -1.19687 70.3681 3.59061 65.4501L65.8137 1.64641C67.3508 0.0433818 69.684 -0.440823 71.708 0.42307C73.7324 1.28696 75.0412 3.32556 75.0152 5.57358V143.28C74.9809 145.5 73.6497 147.482 71.6394 148.306C69.6288 149.131 67.3319 148.637 65.8137 147.054Z" fill="#00AB68"/>
<path d="M93.5121 0.0192144C91.9578 -0.110321 90.4208 0.419403 89.2795 1.47794C88.1382 2.53648 87.4988 4.02546 87.5185 5.57825V35.3626C87.4916 38.1012 89.5077 40.4356 92.2315 40.8196C109.1 43.0927 121.684 57.4304 121.684 74.3778C121.684 91.3249 109.1 105.663 92.2315 107.936C89.528 108.343 87.5391 110.671 87.57 113.393V143.177C87.5657 144.712 88.2045 146.178 89.3324 147.224C90.4602 148.269 91.9753 148.799 93.5121 148.685C132.477 145.634 162.534 113.265 162.534 74.3524C162.534 35.4395 132.477 3.06994 93.5121 0.0192144Z" fill="#00AB68"/>
</g>
<path d="M344.9 110C336.7 87 327.3 58.8 321 39.1H301.8C295.3 60.1 283.4 94 277.8 110H294.1C295.7 104.6 297.3 98.9 299 93.2H322.5L327.4 110H344.9ZM302.5 81.1C305.5 70.7 308.4 60.4 310.8 51.4C313.6 61.6 316.3 71.3 319.1 81.1H302.5ZM397.254 71.5C405.354 68.4 409.154 63.4 409.154 57C409.154 43.9 397.654 38.5 378.254 38.5C372.654 38.5 362.154 39 357.354 39.6C357.454 45 357.554 50.4 357.554 55.8V95.5C357.554 100.3 357.354 105.2 357.354 110C363.854 110.8 373.154 110.9 379.054 110.9C397.154 110.9 412.354 103.2 412.354 88.4C412.354 79.5 407.154 73.8 397.254 71.5ZM379.554 50.6C387.154 50.6 393.254 53 393.254 59.2C393.254 64.9 388.654 68.5 380.154 68.5H372.854V50.9C374.954 50.7 377.354 50.6 379.554 50.6ZM380.554 98.8C377.954 98.8 375.354 98.7 372.854 98.4V79.6H381.454C391.654 79.6 397.154 83.3 397.154 89.2C397.154 95.2 391.254 98.8 380.554 98.8ZM459.178 110.9C466.478 110.9 473.178 109.5 477.978 106.9L478.278 92.9C474.478 95.2 467.778 97.2 461.478 97.2C450.178 97.2 440.078 90.2 440.078 74.5C440.078 60 448.978 51.5 462.278 51.5C466.678 51.5 471.978 52.4 476.578 54.5L478.178 40.8C474.078 39.3 468.078 38.2 461.378 38.2C440.178 38.2 423.278 51.8 423.278 75.8C423.278 98.9 438.778 110.9 459.178 110.9ZM576.285 93.4L560.285 39.1H550.785L534.685 93.5L525.185 38.7L507.585 39.1C512.885 59.4 518.785 84.2 524.385 110H541.885C545.885 95.9 550.385 82 555.385 66.2C560.485 82.6 563.985 94.7 567.985 110H585.085C590.385 86.4 595.885 63.6 602.085 39.1H585.385L576.285 93.4ZM652.181 78.7C652.181 65.7 644.581 57.7 630.481 57.7C614.681 57.7 604.981 69 604.981 85C604.981 102.1 615.681 111.2 632.681 111.2C639.481 111.2 645.881 109.6 649.381 107.3L649.881 95.4C646.481 97.8 641.281 99.4 635.481 99.4C627.081 99.4 620.681 96 619.481 86.9H651.581C651.881 84.9 652.181 81.4 652.181 78.7ZM630.081 68.9C635.281 68.9 638.881 72.1 638.881 78.1V78.4H619.781C621.081 72 624.981 68.9 630.081 68.9ZM693.259 57.7C686.959 57.7 682.359 59.9 678.759 63.5C678.859 55.4 678.859 47.2 679.059 39.1H663.459C663.559 45.3 663.759 51.5 663.759 57.7V86.1C663.759 92.8 663.559 99.4 663.459 106C669.259 109.5 677.559 111.1 684.659 111.1C703.759 111.1 713.559 99.5 713.559 82.2C713.559 65.6 705.059 57.7 693.259 57.7ZM684.959 100C682.859 100 680.759 99.5 678.959 98.8C678.859 89.3 678.759 79.8 678.759 70.3C680.559 69.6 683.159 69 685.759 69C693.759 69 698.059 74.3 698.059 84C698.059 94.4 693.259 100 684.959 100Z" fill="#008E5A"/>
<defs>
<clipPath id="clip0">
<rect width="163" height="148.701" fill="white"/>
</clipPath>
</defs>
</svg>