<svg width="162" height="164" viewBox="0 0 162 164" fill="none" xmlns="http://www.w3.org/2000/svg">
<g clip-path="url(#clip0_701_37439)">
<path d="M103.667 15.6286H0.69696V86.2086H103.667V15.6286Z" fill="#E8E9EA"/>
<path d="M35.0121 86.5836C34.9127 86.5836 34.8173 86.5441 34.747 86.4737C34.6767 86.4034 34.6371 86.308 34.6371 86.2086V15.6286C34.6371 15.5291 34.6767 15.4337 34.747 15.3634C34.8173 15.2931 34.9127 15.2536 35.0121 15.2536C35.1116 15.2536 35.207 15.2931 35.2773 15.3634C35.3476 15.4337 35.3871 15.5291 35.3871 15.6286V86.2086C35.3871 86.308 35.3476 86.4034 35.2773 86.4737C35.207 86.5441 35.1116 86.5836 35.0121 86.5836Z" fill="#1D232A"/>
<path d="M69.3422 86.5836C69.2427 86.5836 69.1473 86.5441 69.077 86.4737C69.0067 86.4034 68.9672 86.308 68.9672 86.2086V15.6286C68.9672 15.5291 69.0067 15.4337 69.077 15.3634C69.1473 15.2931 69.2427 15.2536 69.3422 15.2536C69.4416 15.2536 69.537 15.2931 69.6073 15.3634C69.6776 15.4337 69.7172 15.5291 69.7172 15.6286V86.2086C69.7172 86.308 69.6776 86.4034 69.6073 86.4737C69.537 86.5441 69.4416 86.5836 69.3422 86.5836Z" fill="#1D232A"/>
<path d="M103.667 39.531H0.837036C0.73758 39.531 0.642197 39.4915 0.571871 39.4212C0.501545 39.3509 0.462036 39.2555 0.462036 39.156C0.462036 39.0566 0.501545 38.9612 0.571871 38.8909C0.642197 38.8205 0.73758 38.781 0.837036 38.781H103.667C103.766 38.781 103.862 38.8205 103.932 38.8909C104.003 38.9612 104.042 39.0566 104.042 39.156C104.042 39.2555 104.003 39.3509 103.932 39.4212C103.862 39.4915 103.766 39.531 103.667 39.531Z" fill="#1D232A"/>
<path d="M103.667 63.0561H0.837036C0.73758 63.0561 0.642197 63.0166 0.571871 62.9462C0.501545 62.8759 0.462036 62.7805 0.462036 62.6811C0.462036 62.5816 0.501545 62.4862 0.571871 62.4159C0.642197 62.3456 0.73758 62.3061 0.837036 62.3061H103.667C103.766 62.3061 103.862 62.3456 103.932 62.4159C104.003 62.4862 104.042 62.5816 104.042 62.6811C104.042 62.7805 104.003 62.8759 103.932 62.9462C103.862 63.0166 103.766 63.0561 103.667 63.0561Z" fill="#1D232A"/>
<path d="M88.7145 54.0685C88.658 54.0672 88.6025 54.0535 88.5519 54.0282C88.5014 54.0029 88.457 53.9667 88.4221 53.9223C88.3872 53.8778 88.3626 53.8261 88.3501 53.771C88.3375 53.7159 88.3373 53.6587 88.3495 53.6035C91.0645 42.6035 91.0545 32.7235 88.322 24.226C85.8795 16.631 81.282 10.476 75.0245 6.42598C68.9395 2.48598 61.6695 0.735985 54.012 1.36099C46.057 2.01099 38.197 5.21099 31.2845 10.611C31.246 10.6431 31.2013 10.6671 31.1533 10.6817C31.1053 10.6963 31.0548 10.701 31.0049 10.6957C30.955 10.6904 30.9067 10.6752 30.8628 10.6509C30.8189 10.6266 30.7804 10.5937 30.7494 10.5542C30.7184 10.5147 30.6957 10.4694 30.6826 10.421C30.6695 10.3725 30.6662 10.322 30.673 10.2722C30.6797 10.2225 30.6964 10.1747 30.722 10.1315C30.7476 10.0883 30.7816 10.0508 30.822 10.021C37.852 4.52099 45.8495 1.27099 53.952 0.605985C61.787 -0.0340146 69.217 1.75849 75.452 5.78849C81.8545 9.93349 86.5595 16.2285 89.0545 23.9885C91.832 32.621 91.8445 42.641 89.0995 53.7735C89.0802 53.8601 89.0311 53.937 88.9607 53.991C88.8903 54.0449 88.8031 54.0724 88.7145 54.0685Z" fill="#1D232A"/>
<path d="M34.8544 12.2335C34.8221 12.2937 34.7742 12.344 34.7156 12.3792C34.6571 12.4144 34.5902 12.4332 34.5219 12.4335H34.5119L28.5994 12.2035C28.5431 12.2015 28.488 12.1868 28.4382 12.1604C28.3884 12.1339 28.3452 12.0966 28.3119 12.051C28.278 12.0059 28.255 11.9536 28.2446 11.8981C28.2342 11.8426 28.2367 11.7854 28.2519 11.731L29.7519 6.14105C29.7702 6.07307 29.8072 6.01159 29.8587 5.96365C29.9102 5.9157 29.9742 5.88322 30.0433 5.86992C30.1124 5.85662 30.1839 5.86303 30.2495 5.88843C30.3151 5.91383 30.3723 5.95719 30.4144 6.01355L34.8219 11.8335C34.8642 11.8905 34.8896 11.9582 34.8953 12.0289C34.901 12.0996 34.8869 12.1705 34.8544 12.2335Z" fill="#1D232A"/>
<path d="M19.4595 34.3185C18.9113 34.3243 18.3676 34.2192 17.8611 34.0095C17.3546 33.7999 16.8957 33.49 16.512 33.0985C16.4446 33.0256 16.4087 32.9291 16.412 32.8299C16.4153 32.7308 16.4575 32.6368 16.5295 32.5685C16.5653 32.5346 16.6074 32.5081 16.6536 32.4906C16.6997 32.473 16.7488 32.4649 16.7981 32.4665C16.8474 32.4681 16.8959 32.4795 16.9408 32.5C16.9857 32.5206 17.026 32.5498 17.0595 32.586C17.6608 33.1811 18.4615 33.532 19.3066 33.5708C20.1517 33.6095 20.9812 33.3335 21.6345 32.796C22.2256 32.3371 22.7041 31.7492 23.0333 31.0772C23.3626 30.4052 23.534 29.6669 23.5345 28.9185C23.512 27.936 23.137 27.1385 22.482 26.6685C21.187 25.751 20.087 26.191 18.562 26.7985L18.422 26.8535C16.7945 27.501 15.3445 27.9535 14.087 26.9235C13.6923 26.5783 13.3802 26.1488 13.1738 25.6667C12.9674 25.1847 12.8719 24.6624 12.8945 24.1385C12.9153 23.3964 13.1006 22.6681 13.4369 22.0062C13.7733 21.3444 14.2523 20.7654 14.8395 20.311C15.4045 19.8576 16.0865 19.5735 16.8064 19.4917C17.5262 19.4098 18.2545 19.5335 18.907 19.8485C18.9513 19.87 18.9909 19.9001 19.0237 19.9369C19.0564 19.9737 19.0815 20.0166 19.0977 20.0632C19.1138 20.1097 19.1206 20.159 19.1177 20.2082C19.1148 20.2573 19.1022 20.3055 19.0807 20.3498C19.0592 20.3941 19.0292 20.4338 18.9924 20.4665C18.9555 20.4992 18.9126 20.5243 18.8661 20.5405C18.8195 20.5566 18.7703 20.5634 18.7211 20.5605C18.6719 20.5576 18.6238 20.545 18.5795 20.5235C18.0545 20.273 17.4695 20.176 16.8918 20.2437C16.3141 20.3114 15.7673 20.541 15.3145 20.906C14.8138 21.2905 14.405 21.7816 14.1179 22.3438C13.8307 22.906 13.6724 23.525 13.6545 24.156C13.6333 24.5679 13.7049 24.9792 13.8642 25.3596C14.0234 25.74 14.2662 26.0797 14.5745 26.3535C15.432 27.0585 16.4545 26.8535 18.1545 26.166L18.2945 26.111C19.8395 25.496 21.2945 24.9135 22.9245 26.066C23.767 26.6635 24.2645 27.6985 24.2945 28.906C24.2953 29.7708 24.0987 30.6244 23.7196 31.4016C23.3405 32.1789 22.789 32.8593 22.107 33.391C21.3549 33.9909 20.4215 34.3179 19.4595 34.3185Z" fill="#1D232A"/>
<path d="M22.5895 34.9886C22.5214 34.9887 22.4546 34.9704 22.396 34.9357C22.3375 34.9009 22.2895 34.8509 22.257 34.7911L13.977 19.3136C13.9299 19.2257 13.9197 19.1228 13.9485 19.0274C13.9773 18.932 14.0429 18.8519 14.1307 18.8048C14.2186 18.7578 14.3216 18.7475 14.417 18.7764C14.5124 18.8052 14.5924 18.8707 14.6395 18.9586L22.9195 34.4361C22.9646 34.5231 22.9736 34.6243 22.9446 34.7179C22.9156 34.8115 22.8509 34.8899 22.7645 34.9361C22.7116 34.9681 22.6513 34.9862 22.5895 34.9886Z" fill="#1D232A"/>
<path d="M18.8545 37.721C17.3401 37.7369 15.8388 37.4398 14.4445 36.8485C12.427 35.9635 10.927 34.456 10.222 32.5985C10.2021 32.5521 10.1917 32.5021 10.1915 32.4516C10.1914 32.401 10.2014 32.351 10.2211 32.3044C10.2408 32.2579 10.2697 32.2158 10.306 32.1807C10.3424 32.1456 10.3855 32.1182 10.4327 32.1001C10.4799 32.0821 10.5303 32.0738 10.5808 32.0757C10.6313 32.0776 10.6809 32.0897 10.7266 32.1113C10.7723 32.1328 10.8131 32.1634 10.8467 32.2012C10.8803 32.2389 10.9059 32.2831 10.922 32.331C11.5645 34.0135 12.887 35.331 14.747 36.151C17.262 37.256 20.4345 37.246 23.232 36.131C24.3701 35.657 25.3952 34.9478 26.24 34.0499C27.0849 33.1521 27.7305 32.0858 28.1345 30.921C29.1095 28.2235 28.8395 25.2485 27.3845 22.5485C25.152 18.436 20.2095 16.411 15.3695 17.6235C10.5795 18.821 7.69702 22.671 7.65952 27.9235C7.65952 28.731 7.75452 31.571 9.27202 34.186C9.32175 34.2722 9.3352 34.3746 9.30941 34.4707C9.28363 34.5669 9.22072 34.6488 9.13452 34.6985C9.04833 34.7482 8.94591 34.7617 8.84979 34.7359C8.75368 34.7101 8.67175 34.6472 8.62202 34.561C7.00952 31.781 6.90452 28.776 6.90952 27.9185C6.95702 21.306 11.217 17.8885 15.187 16.896C20.362 15.601 25.647 17.7785 28.042 22.191C29.612 25.0835 29.8995 28.2735 28.8495 31.176C28.4093 32.441 27.706 33.5983 26.786 34.5718C25.866 35.5452 24.7502 36.3126 23.512 36.8235C22.0303 37.4147 20.4498 37.7192 18.8545 37.721Z" fill="#1D232A"/>
<path d="M137.012 156.636C150.554 146.931 164.382 106.386 159.599 88.9885C158.372 84.541 151.184 82.6535 145.624 91.111C142.822 95.361 140.484 99.261 138.534 102.639C132.172 74.521 127.622 69.716 122.512 69.211C119.114 68.861 109.584 71.316 114.414 87.6285C114.527 87.9985 114.649 88.3785 114.769 88.7685C114.769 88.791 114.792 88.826 114.799 88.846C114.807 88.866 114.769 88.831 114.759 88.8285C113.891 88.445 113.004 88.1054 112.102 87.811C99.6019 83.611 95.7744 92.0135 98.1519 98.291C99.0369 100.621 100.967 102.946 102.964 104.884C104.82 106.669 106.807 108.312 108.909 109.799C108.607 109.841 108.304 109.881 108.007 109.946C96.5894 112.099 88.1519 120.946 87.2144 132.046C85.9644 146.724 94.3169 158.334 106.079 161.869C117.607 165.349 127.857 163.204 137.012 156.636Z" fill="#E09661"/>
<path d="M119.427 93.251L119.727 92.5235L119.294 92.256C119.337 92.576 119.384 92.9085 119.427 93.251Z" fill="#1D232A"/>
<path d="M111.572 109.849L112.017 111.319L119.41 93.3061C118.705 92.8386 118.017 92.4311 117.355 92.0811L107.355 104.929C108.635 106.672 110.045 108.317 111.572 109.849Z" fill="#1D232A"/>
<path d="M108.029 125.794L125.303 133.878C126.614 134.492 128.173 133.926 128.787 132.616L160.427 65.0086C161.041 63.698 160.476 62.1384 159.165 61.5251L141.891 53.4405C140.58 52.8272 139.02 53.3924 138.407 54.7029L106.766 122.31C106.153 123.621 106.718 125.18 108.029 125.794Z" fill="#42EC9A"/>
<path d="M108.037 125.784L125.309 133.869C125.622 134.014 125.96 134.097 126.304 134.112C126.648 134.127 126.992 134.074 127.315 133.956C127.639 133.838 127.936 133.658 128.19 133.425C128.444 133.192 128.649 132.911 128.794 132.599L150.167 86.9361L121.569 90.6861L106.774 122.301C106.48 122.93 106.448 123.651 106.685 124.304C106.922 124.957 107.408 125.489 108.037 125.784Z" fill="#1D232A"/>
<path d="M73.8043 109.774L116.108 129.572C117.64 130.289 119.463 129.628 120.18 128.097L151.446 61.2908C152.163 59.7589 151.502 57.9359 149.97 57.2189L107.666 37.4204C106.134 36.7035 104.311 37.3641 103.594 38.896L72.3287 105.702C71.6117 107.234 72.2724 109.057 73.8043 109.774Z" fill="#00A868"/>
<path d="M80.6642 103.101L117.728 120.448L144.004 64.3044L106.94 46.9581L80.6642 103.101Z" fill="#FCFCFC"/>
<path d="M84.1033 104.711L117.73 120.448L144.006 64.3054L110.379 48.5676L84.1033 104.711Z" fill="#42EC9A"/>
<path d="M127.234 53.5411C128.15 53.5411 128.892 52.799 128.892 51.8836C128.892 50.9682 128.15 50.2261 127.234 50.2261C126.319 50.2261 125.577 50.9682 125.577 51.8836C125.577 52.799 126.319 53.5411 127.234 53.5411Z" fill="#1D232A"/>
<path d="M131.4 150.581C134.332 145.281 146.834 129.889 138.382 117.649C134.12 111.479 128.882 106.926 124.947 104.694C122.78 103.639 118.54 103.944 116.317 107.456C114.127 111.141 114.512 120.144 119.51 125.981C111.21 124.086 102.15 129.436 99.132 135.394" fill="#E09661"/>
<path d="M131.399 150.583C131.306 150.582 131.217 150.546 131.149 150.481C131.077 150.413 131.035 150.318 131.032 150.219C131.029 150.12 131.066 150.023 131.134 149.951C133.024 147.966 138.754 139.701 140.522 130.661C141 128.2 140.968 125.666 140.428 123.218C139.888 120.769 138.851 118.458 137.382 116.426C136.544 115.237 135.637 114.098 134.667 113.013C134.599 112.941 134.563 112.844 134.566 112.744C134.57 112.644 134.613 112.55 134.686 112.482C134.759 112.414 134.856 112.378 134.955 112.382C135.055 112.385 135.149 112.428 135.217 112.501C136.206 113.609 137.132 114.773 137.989 115.986C139.519 118.101 140.599 120.507 141.162 123.055C141.725 125.604 141.759 128.241 141.262 130.803C139.462 140.018 133.609 148.441 131.682 150.468C131.646 150.506 131.602 150.536 131.553 150.556C131.504 150.576 131.452 150.585 131.399 150.583Z" fill="#1D232A"/>
<path d="M50.1945 92.046C72.7995 83.631 95.2745 83.0785 105.055 86.461C108.495 87.651 112.25 90.8035 111 94.711C109.642 98.961 105.842 100.546 102.81 101.503C95.1245 103.923 83.462 104.846 72.482 108.921" fill="#E09661"/>
<path d="M64.1144 132.849C56.8644 137.719 40.5619 146.176 21.2069 136.176C13.0719 131.974 -4.26556 116.984 6.20694 92.8635C10.2069 83.6335 21.0794 73.241 34.8569 70.816C41.5569 69.6335 48.3794 70.461 52.6394 76.676C57.7044 75.796 68.7369 78.7385 71.8894 86.426C72.8169 89.106 73.6919 92.281 74.7069 94.926C76.2069 98.841 77.3994 102.959 77.3069 107.154C77.2177 110.313 76.6781 113.444 75.7044 116.451C73.5719 123.139 69.4419 129.266 64.1144 132.849Z" fill="#E09661"/>
<path d="M41.2622 79.3936C41.1746 79.3919 41.0904 79.3598 41.0239 79.3028C40.9574 79.2458 40.9128 79.1674 40.8977 79.0811C40.8827 78.9948 40.8981 78.906 40.9413 78.8298C40.9845 78.7537 41.0529 78.6949 41.1347 78.6636C45.9264 76.9483 50.9914 76.1238 56.0797 76.2311C56.1791 76.2311 56.2745 76.2706 56.3449 76.3409C56.4152 76.4113 56.4547 76.5066 56.4547 76.6061C56.4547 76.7056 56.4152 76.8009 56.3449 76.8713C56.2745 76.9416 56.1791 76.9811 56.0797 76.9811C51.0825 76.8774 46.1084 77.6874 41.4022 79.3711C41.3575 79.3879 41.3099 79.3955 41.2622 79.3936Z" fill="#1D232A"/>
<path d="M53.1494 91.186C53.0612 91.1859 52.9759 91.1547 52.9085 91.098C52.841 91.0412 52.7957 90.9625 52.7805 90.8757C52.7653 90.7889 52.7811 90.6995 52.8253 90.6232C52.8694 90.5469 52.939 90.4885 53.0219 90.4585C57.7719 88.7585 66.7719 86.8285 71.6919 85.8285C71.7894 85.8086 71.8907 85.8282 71.9737 85.8831C72.0567 85.9379 72.1145 86.0235 72.1344 86.121C72.1543 86.2184 72.1346 86.3198 72.0798 86.4028C72.0249 86.4858 71.9394 86.5436 71.8419 86.5635C66.9294 87.5635 57.9869 89.481 53.2744 91.1635C53.2344 91.1784 53.1921 91.186 53.1494 91.186Z" fill="#1D232A"/>
<path d="M75.7069 116.451C73.8044 113.381 70.9569 111.748 67.4569 111.133C70.6562 109.65 73.9491 108.377 77.3144 107.323C77.2234 110.428 76.6819 113.502 75.7069 116.451Z" fill="#1D232A"/>
<path d="M75.1118 117.599C75.0454 117.598 74.9803 117.58 74.9229 117.547C74.8655 117.514 74.8177 117.466 74.7843 117.409C72.3068 113.014 67.4668 111.741 67.4193 111.729C67.3683 111.72 67.3196 111.701 67.2763 111.673C67.2329 111.644 67.196 111.607 67.1677 111.564C67.1393 111.521 67.1203 111.472 67.1118 111.421C67.1032 111.37 67.1053 111.317 67.1179 111.267C67.1306 111.217 67.1535 111.17 67.1852 111.129C67.2169 111.088 67.2567 111.054 67.3022 111.03C67.3476 111.005 67.3977 110.99 67.4493 110.985C67.5008 110.981 67.5528 110.987 67.6018 111.004C67.8118 111.056 72.7968 112.356 75.4393 117.039C75.4873 117.126 75.4993 117.228 75.4727 117.324C75.446 117.42 75.3829 117.501 75.2968 117.551C75.2401 117.582 75.1765 117.599 75.1118 117.599Z" fill="#1D232A"/>
<path d="M99.1322 135.771C99.073 135.77 99.0147 135.756 98.9622 135.729C98.8745 135.684 98.808 135.606 98.7772 135.512C98.7463 135.419 98.7535 135.317 98.7972 135.229C100.657 131.559 104.685 128.206 109.31 126.479C109.4 126.457 109.494 126.47 109.576 126.514C109.657 126.558 109.719 126.63 109.75 126.718C109.781 126.805 109.779 126.9 109.744 126.986C109.708 127.071 109.643 127.141 109.56 127.181C105.102 128.846 101.232 132.061 99.4547 135.569C99.4239 135.628 99.3777 135.678 99.321 135.714C99.2643 135.749 99.1991 135.769 99.1322 135.771Z" fill="#1D232A"/>
</g>
<defs>
<clipPath id="clip0_701_37439">
<rect width="161.076" height="163.042" fill="white" transform="translate(0.462036 0.479248)"/>
</clipPath>
</defs>
</svg>
