<svg width="118" height="106" viewBox="0 0 118 106" fill="none" xmlns="http://www.w3.org/2000/svg">
<g clip-path="url(#clip0_701_37430)">
<g clip-path="url(#clip1_701_37430)">
<path d="M49.7274 97.3136C55.8949 92.3261 62.4624 97.9336 69.4999 94.2761C71.6874 93.1386 73.9024 91.9061 75.4999 90.0261C77.0974 88.1461 77.9324 85.4361 76.9999 83.1511C69.1499 78.4586 61.1124 73.6936 52.1649 71.8061C42.7974 69.8311 33.1349 71.1861 23.9724 73.5561C21.4724 74.2036 14.6824 74.8986 13.4324 77.4211C11.6974 97.8711 40.2024 105.019 49.7274 97.3136Z" fill="#8F5049"/>
<path d="M43.7175 90.6212C46.6619 91.4639 49.2006 93.3462 50.8625 95.9187C51.3 92.7962 51.8425 89.5937 52.28 86.4687C52.3392 86.2319 52.3217 85.9824 52.23 85.7562C52.0675 85.4487 51.68 85.3562 51.3375 85.2962C45.3773 84.2428 39.3182 83.857 33.2725 84.1462L32.7875 91.1462C35.335 90.6212 40.8125 89.8012 43.7175 90.6212Z" fill="#1D232A"/>
<path d="M79.8652 101.889C65.3802 102.856 53.3227 108.676 48.4252 101.441C48.2827 101.234 48.1477 101.014 48.0202 100.784C47.8252 100.437 47.6507 100.079 47.4977 99.7113C47.1994 98.9297 46.9489 98.1307 46.7477 97.3188C45.5802 92.6188 48.9102 84.1338 58.2302 81.3338C58.8352 78.4938 58.0127 76.7963 56.2652 75.8738C52.0552 73.6438 42.4577 75.8738 34.4152 77.3263C16.4152 80.5563 3.19015 72.9213 1.03015 54.7588C-1.61485 32.5388 6.34265 26.0088 10.1377 22.6413C23.9727 10.3588 51.6377 0.0362802 74.5127 1.05378C95.5002 1.98878 102.635 15.3238 105.428 22.2363C131.12 85.7688 112.535 99.7088 79.8652 101.889Z" fill="#8F5049"/>
<path d="M33.1624 48.8712L51.1624 79.8462C45.9124 87.1437 28.4124 100.214 11.7949 82.3662C0.472388 70.1987 -1.31261 46.3912 2.50739 33.3237" fill="#8F5049"/>
<path d="M29.8998 91.7137C23.9373 91.7137 18.2923 89.2137 13.0973 84.2137C13.0575 84.1809 13.0249 84.1402 13.0015 84.0942C12.9782 84.0482 12.9646 83.9979 12.9616 83.9464C12.9586 83.8949 12.9662 83.8433 12.984 83.7949C13.0019 83.7465 13.0295 83.7023 13.0652 83.665C13.1009 83.6278 13.1439 83.5983 13.1915 83.5784C13.2391 83.5586 13.2903 83.5487 13.3419 83.5495C13.3935 83.5504 13.4443 83.5618 13.4913 83.5832C13.5382 83.6046 13.5803 83.6354 13.6148 83.6738C19.2248 89.0538 25.3498 91.4737 31.8123 90.8712C39.8773 90.1212 47.3323 84.5187 50.8448 79.6212C50.8735 79.5812 50.9098 79.5472 50.9517 79.5212C50.9936 79.4952 51.0402 79.4777 51.0888 79.4696C51.1374 79.4616 51.1872 79.4633 51.2352 79.4745C51.2832 79.4857 51.3285 79.5063 51.3685 79.535C51.4086 79.5637 51.4426 79.6001 51.4686 79.6419C51.4946 79.6838 51.5121 79.7304 51.5201 79.779C51.5281 79.8276 51.5265 79.8774 51.5153 79.9254C51.5041 79.9734 51.4835 80.0187 51.4548 80.0587C48.6698 83.9362 41.4148 90.7312 31.8823 91.6137C31.2248 91.6812 30.5623 91.7137 29.8998 91.7137Z" fill="#1D232A"/>
<path d="M85.75 84.6463C73.6275 85.8163 53.9125 91.9313 47.5 99.7113C47.2534 99.1028 47.0463 98.479 46.88 97.8438C45.2475 91.9563 48.925 84.7188 58.245 81.9188C58.85 79.0788 58.0275 77.3813 56.28 76.4588C56.86 76.2363 57.45 76.0288 58.03 75.8288L74.87 70.0338C77.0775 69.2838 79.6475 68.5488 81.62 69.7963C82.4475 70.3188 83.045 71.1238 83.62 71.9113C86.125 75.3188 83.2425 81.2313 85.75 84.6463Z" fill="#1D232A"/>
<path d="M86.0623 84.9014C72.8123 87.6339 55.6998 93.9014 48.4148 101.441C48.2723 101.234 48.1373 101.014 48.0098 100.784C55.4923 93.1939 72.6223 86.9039 85.9123 84.1664C86.0098 84.1465 86.1111 84.1661 86.1941 84.221C86.2771 84.2759 86.3349 84.3614 86.3548 84.4589C86.3747 84.5564 86.355 84.6577 86.3002 84.7407C86.2453 84.8237 86.1597 84.8815 86.0623 84.9014Z" fill="#1D232A"/>
<path d="M64.1597 50.3563C66.1022 61.2363 71.9372 79.4788 64.1597 87.9713C56.1322 96.7413 40.6923 90.6588 33.6598 73.4713C29.3048 62.8138 25.2997 48.9713 27.0197 31.5363" fill="#8F5049"/>
<path d="M55.1224 92.3313C54.253 92.3295 53.3855 92.2508 52.5299 92.0963C44.7799 90.7113 37.4124 83.6238 33.3149 73.5962C29.5649 64.4387 24.8149 50.1113 26.6474 31.4838C26.6522 31.4345 26.6666 31.3867 26.6898 31.343C26.7131 31.2993 26.7447 31.2607 26.7829 31.2292C26.8211 31.1977 26.8651 31.1741 26.9124 31.1597C26.9597 31.1452 27.0094 31.1402 27.0587 31.145C27.1079 31.1498 27.1557 31.1642 27.1994 31.1874C27.2431 31.2107 27.2818 31.2423 27.3132 31.2805C27.3447 31.3187 27.3683 31.3627 27.3827 31.41C27.3972 31.4573 27.4022 31.507 27.3974 31.5562C25.5774 50.0212 30.2999 64.2287 34.0124 73.3062C38.0124 83.0938 45.1599 90.0062 52.6649 91.3487C57.0374 92.1287 61.0224 90.8362 63.8874 87.7087C70.2324 80.7812 67.3399 67.2788 65.0174 56.4312C64.5574 54.2762 64.1199 52.2413 63.7949 50.4113C63.7833 50.3616 63.782 50.3101 63.791 50.2599C63.7999 50.2098 63.8191 50.1619 63.8471 50.1194C63.8752 50.0768 63.9117 50.0405 63.9543 50.0125C63.9969 49.9845 64.0448 49.9655 64.095 49.9567C64.1452 49.9478 64.1967 49.9493 64.2463 49.961C64.2959 49.9727 64.3426 49.9945 64.3836 50.0248C64.4245 50.0552 64.4588 50.0936 64.4844 50.1377C64.51 50.1818 64.5263 50.2306 64.5324 50.2813C64.8574 52.0963 65.2824 54.1263 65.7524 56.2813C68.1099 67.2988 71.0449 81.0112 64.4399 88.2237C63.2678 89.531 61.8305 90.5736 60.2239 91.2818C58.6173 91.9901 56.8782 92.3478 55.1224 92.3313Z" fill="#1D232A"/>
<path d="M58.7347 22.3313C58.7347 44.3313 63.3597 62.0138 67.8122 71.6288C78.4472 94.5913 102.562 84.1813 97.6097 63.5388C93.2897 45.5388 93.1597 41.2888 92.9947 25.6988" fill="#8F5049"/>
<path d="M84.3125 85.0188C81.9412 85.0037 79.6088 84.4144 77.515 83.3013C73.46 81.1838 69.99 77.2013 67.4825 71.7863C65.345 67.1713 58.37 49.9638 58.37 22.3313C58.37 22.2318 58.4095 22.1365 58.4798 22.0661C58.5501 21.9958 58.6455 21.9563 58.745 21.9563C58.8444 21.9563 58.9398 21.9958 59.0101 22.0661C59.0805 22.1365 59.12 22.2318 59.12 22.3313C59.12 49.8113 66.0425 66.8913 68.1625 71.4713C73.805 83.6513 82.6425 85.5988 88.495 83.5638C94.5175 81.4688 99.8275 74.3363 97.245 63.6263C92.995 45.8763 92.785 41.4863 92.6175 25.7013C92.6171 25.6521 92.6265 25.6032 92.6451 25.5576C92.6636 25.512 92.691 25.4705 92.7255 25.4354C92.7601 25.4003 92.8013 25.3725 92.8466 25.3533C92.892 25.3342 92.9407 25.3241 92.99 25.3238C93.0886 25.3238 93.1832 25.3626 93.2534 25.4319C93.3236 25.5011 93.3637 25.5952 93.365 25.6938C93.5625 44.4663 94.34 48.3213 97.97 63.4438C100.65 74.6113 95.0575 82.0638 88.72 84.2663C87.3031 84.7615 85.8134 85.0159 84.3125 85.0188Z" fill="#1D232A"/>
<path d="M93.8725 42.1213C93.7914 42.1216 93.7124 42.0956 93.6473 42.0473C93.5822 41.9989 93.5345 41.9308 93.5115 41.8531C93.4884 41.7753 93.4911 41.6922 93.5192 41.6162C93.5473 41.5401 93.5993 41.4753 93.6675 41.4313C96.3375 39.6813 97.7475 36.9613 98.1025 32.8638C98.112 32.7647 98.16 32.6733 98.2362 32.6092C98.3124 32.5452 98.4107 32.5136 98.51 32.5213C98.6086 32.5302 98.6998 32.5778 98.7635 32.6536C98.8272 32.7295 98.8583 32.8275 98.85 32.9263C98.4725 37.2738 96.9575 40.1763 94.0775 42.0588C94.0169 42.0996 93.9455 42.1214 93.8725 42.1213Z" fill="#1D232A"/>
</g>
</g>
<defs>
<clipPath id="clip0_701_37430">
<rect width="116.975" height="104.033" fill="white" transform="translate(0.512451 0.983765)"/>
</clipPath>
<clipPath id="clip1_701_37430">
<rect width="116.975" height="104.033" fill="white" transform="translate(0.512451 0.983765)"/>
</clipPath>
</defs>
</svg>
