<svg width="364" height="255" viewBox="0 0 364 255" fill="none" xmlns="http://www.w3.org/2000/svg">
<g clip-path="url(#clip0_722_6625)">
<path d="M34.267 121.721C33.2117 115.857 39.2342 113.812 42.9707 116.878C44.2942 117.964 46.7314 120.497 50.5745 122.439C56.7929 125.584 66.5932 124.814 68.0954 131.073C67.982 130.874 57.6454 132.826 57.1057 132.836C55.2564 132.867 47.0235 133.709 45.2773 133.111C36.9895 130.289 34.6589 123.893 34.267 121.721Z" fill="#8F5049"/>
<path d="M340.785 51.6551V62.7295H343.948V83.1357H285.386V32.6821H314.663V42.6979H343.948V51.6551H340.785Z" fill="#42EC9A"/>
<path d="M314.667 62.2002H311.501V83.0292H314.667V62.2002Z" fill="#1D232A"/>
<path d="M298.669 62.7295H282.217V82.2386H298.669V62.7295Z" fill="#42EC9A"/>
<path d="M298.669 42.6943H282.217V51.6549H298.669V42.6943Z" fill="#42EC9A"/>
<path d="M289.303 82.0171V33.1821H292.837V82.0171H289.303Z" fill="#FCFCFC" stroke="#FCFCFC"/>
<path d="M295.384 82.0171V33.1821H296.048V82.0171H295.384Z" fill="#FCFCFC" stroke="#FCFCFC"/>
<path d="M314.667 41.6392H285.383V42.6978H314.667V41.6392Z" fill="#1D232A"/>
<path d="M340.789 51.6548H285.383V52.7134H340.789V51.6548Z" fill="#1D232A"/>
<path d="M340.789 61.6738H285.383V62.7325H340.789V61.6738Z" fill="#1D232A"/>
<path d="M343.947 71.6865H282.217V72.7452H343.947V71.6865Z" fill="#1D232A"/>
<path d="M313.574 42.6978L313.533 51.6549H314.667V86.6621H320.951L314.753 42.6978H313.574Z" fill="#1D232A"/>
<path d="M97.0286 220.122C84.193 235.538 68.9992 263.746 41.1967 251.434C25.4186 244.447 24.872 226.804 27.8524 212.2C32.0908 191.422 41.788 150.613 41.788 150.613C32.462 150.751 16.3505 146.526 7.57454 141.147C-4.64921 133.658 1.04673 125.745 4.88642 124.989C9.20392 124.137 15.6939 127.014 19.3102 128.509C27.8386 132.039 35.8617 132.032 43.792 131.565C51.1827 131.128 57.463 131.427 65.737 129.079C70.6114 127.698 86.2589 134.424 82.7836 150.218L78.7136 171.882L121.284 189.04L97.0286 220.122Z" fill="#8F5049"/>
<path d="M32.1803 146.677C21.7784 144.512 19.5406 143.938 15.9759 139.71C13.7519 141.199 10.7028 141.439 7.10718 140.858C7.10718 140.858 14.8003 145.87 23.2737 147.282C26.3675 147.798 28.9594 147.337 32.1803 146.677Z" fill="#1D232A"/>
<path d="M30.7261 147.75C19.2242 147.448 11.5964 140.017 9.24856 134.596C7.62949 130.86 6.81824 125.416 10.2248 123.188C16.2576 119.246 20.1901 126.275 25.4942 130.833C29.0107 133.854 36.9101 135.218 42.0217 134.682" fill="#8F5049"/>
<path d="M100.693 215.427L74.0417 194.333L79.8305 165.95L92.2983 150.386C97.4855 144.031 105.392 136.504 128.633 135.033L146.057 158.35L100.693 215.427Z" fill="#00A868"/>
<path d="M56.1016 132.575C55.9297 132.575 55.7613 132.489 55.665 132.335C55.5138 132.094 55.5859 131.774 55.8266 131.623C55.9847 131.523 59.8072 129.159 65.6853 128.567C65.9672 128.54 66.2216 128.746 66.2491 129.028C66.2766 129.31 66.0703 129.564 65.7884 129.592C60.1647 130.155 56.4109 132.472 56.3731 132.493C56.2906 132.551 56.1944 132.575 56.1016 132.575Z" fill="#1D232A"/>
<path d="M71.199 208.515C71.1646 208.515 71.1303 208.512 71.0924 208.505C70.814 208.447 70.6352 208.175 70.6937 207.897L73.5399 194.231C73.5984 193.952 73.8699 193.773 74.1484 193.832C74.4268 193.89 74.6056 194.162 74.5471 194.44L71.7009 208.106C71.6528 208.35 71.4362 208.515 71.199 208.515Z" fill="#1D232A"/>
<path d="M321.569 202.487C337.526 192.134 339.541 174.381 332.401 154.783C325.141 134.858 311.511 101.449 311.511 101.449C320.834 101.593 336.114 95.8978 345.288 91.2302C358.065 84.7306 353.012 76.3921 349.245 75.3335C345.006 74.1442 338.31 76.4952 334.587 77.7017C317.627 83.1942 302.251 82.9192 284.568 80.6301C277.466 79.7089 268.034 84.6928 271.76 100.404L284.974 145.781L253.009 180.451C282.42 205.858 301.718 215.369 321.569 202.487Z" fill="#8F5049"/>
<path d="M320.566 96.0555C331.703 93.1683 337.458 84.2077 338.523 78.3989C339.259 74.3947 338.492 69.5964 334.996 67.5067C332.456 65.984 328.609 65.9187 326.272 69.3146C324.069 72.5146 323.182 74.2813 320.562 77.1513C315.836 82.3345 306.142 83.1903 298.597 80.5471" fill="#8F5049"/>
<path d="M320.566 96.5746C320.335 96.5746 320.126 96.42 320.067 96.1897C319.995 95.9147 320.16 95.6328 320.438 95.5607C326.519 93.983 336.223 88.0884 338.021 78.3097C338.073 78.0313 338.344 77.8457 338.623 77.8973C338.901 77.9488 339.087 78.2169 339.035 78.4988C338.004 84.115 332.267 93.5637 320.7 96.5609C320.652 96.5677 320.61 96.5746 320.566 96.5746Z" fill="#1D232A"/>
<path d="M258.883 185.868L285.874 148.812L284.974 145.784L257.481 128.392C238.819 117.882 223.254 125.808 206.905 127.674L207.764 148.032L256.491 189.089L258.883 185.868Z" fill="#00A868"/>
<path d="M292.973 173.924C292.746 173.924 292.54 173.772 292.478 173.546L284.706 145.509C284.63 145.234 284.792 144.952 285.063 144.873C285.338 144.798 285.62 144.959 285.699 145.231L293.472 173.267C293.547 173.542 293.386 173.824 293.114 173.903C293.066 173.917 293.021 173.924 292.973 173.924Z" fill="#1D232A"/>
<path d="M271.853 100.754C269.278 92.9005 271.042 84.8542 277.659 80.6197C281.44 78.2 288.332 77.4747 293.743 79.0799C299.153 80.6816 306.857 82.6682 315.898 80.4135L314.21 92.8043L271.853 100.754Z" fill="#8F5049"/>
<path d="M172.038 91.1733C200.552 90.2861 223.038 69.3381 222.262 44.3844C221.485 19.4308 197.74 -0.0788942 169.226 0.808244C140.712 1.69538 118.226 22.6434 119.003 47.5971C119.779 72.5507 143.524 92.0604 172.038 91.1733Z" fill="#1D232A"/>
<path d="M200.752 88.7585C201.855 88.9853 202.955 89.0816 204.034 89.0575C204.419 89.0472 204.798 89.0231 205.172 88.9819C205.275 88.975 205.379 88.9613 205.482 88.9475C205.88 88.896 206.276 88.8307 206.668 88.7447C206.784 88.7207 206.898 88.6966 207.015 88.6657C207.283 88.6038 207.551 88.5316 207.819 88.4491C212.721 86.9712 216.681 82.9222 217.791 77.5534C219.404 69.7546 214.385 62.1276 206.585 60.5156C198.785 58.907 191.161 63.9218 189.545 71.7206C187.937 79.5195 192.952 87.1499 200.752 88.7585Z" fill="#8F5049"/>
<path d="M202.354 78.6022C203.113 80.8397 203.873 83.0773 204.636 85.3115C204.162 84.2838 203.704 83.2492 203.271 82.2043C203.075 81.7265 202.305 81.9087 202.477 82.4208C202.938 83.7854 203.354 85.1671 203.729 86.5591C203.639 86.3976 203.546 86.2326 203.454 86.0745C203.185 85.6174 202.474 86.0298 202.742 86.487C203.227 87.3187 203.66 88.1746 204.038 89.0579C204.423 89.0476 204.801 89.0236 205.176 88.9823C205.083 88.563 204.98 88.1471 204.88 87.7312C205.079 88.1368 205.279 88.5424 205.485 88.9479C205.884 88.8964 206.279 88.8311 206.671 88.7451C206.317 87.7106 205.966 86.676 205.616 85.6414C206.083 86.6519 206.547 87.6556 207.018 88.6661C207.286 88.6042 207.554 88.532 207.823 88.4496C206.252 85.0605 204.681 81.675 203.11 78.286C202.907 77.8632 202.206 78.1657 202.354 78.6022Z" fill="#1D232A"/>
<path d="M206.41 79.5952C206.389 79.5952 206.369 79.5952 206.348 79.5917C206.066 79.5574 205.863 79.303 205.898 79.0177C206.259 75.9931 207.458 73.0853 209.373 70.6174C209.548 70.3905 209.871 70.3527 210.095 70.5246C210.318 70.6999 210.359 71.023 210.188 71.2464C208.39 73.5699 207.259 76.299 206.922 79.138C206.891 79.4027 206.668 79.5952 206.41 79.5952Z" fill="#1D232A"/>
<path d="M142.146 93.7116C150.11 93.7116 156.566 87.2561 156.566 79.2928C156.566 71.3295 150.11 64.874 142.146 64.874C134.182 64.874 127.725 71.3295 127.725 79.2928C127.725 87.2561 134.182 93.7116 142.146 93.7116Z" fill="#8F5049"/>
<path d="M139.472 83.7028C139.21 83.7028 138.987 83.5069 138.959 83.2422C138.616 80.0767 137.131 77.1345 134.992 75.3678C134.772 75.1856 134.741 74.8625 134.924 74.6426C135.106 74.4226 135.429 74.3917 135.649 74.5738C137.99 76.5089 139.609 79.7089 139.984 83.1323C140.015 83.4141 139.812 83.6685 139.527 83.6994C139.509 83.7028 139.489 83.7028 139.472 83.7028Z" fill="#1D232A"/>
<path d="M134.271 59.3164L143.236 77.0073L142.957 59.6395L134.271 59.3164Z" fill="#1D232A"/>
<path d="M209.961 56.7935L202.106 75.0034L201.312 57.6527L209.961 56.7935Z" fill="#1D232A"/>
<path d="M174.719 120.415C191.515 119.645 204.509 105.401 203.739 88.6075L203.01 62.7499C202.24 45.9561 187.995 32.9638 171.199 33.7337C154.404 34.5036 141.41 48.7471 142.18 65.5409L142.909 91.3984C143.679 108.196 157.92 121.185 174.719 120.415Z" fill="#8F5049"/>
<path d="M174.665 110.344C174.379 110.344 174.149 110.113 174.149 109.828C174.149 108.457 173.032 107.34 171.66 107.34C171.375 107.34 171.145 107.109 171.145 106.824C171.145 106.539 171.375 106.309 171.66 106.309C173.603 106.309 175.18 107.886 175.18 109.828C175.18 110.113 174.95 110.344 174.665 110.344Z" fill="#1D232A"/>
<path d="M194.837 70.3767L194.836 70.3773C194.603 70.6106 194.346 70.8215 194.066 71.0158C193.227 71.5799 192.218 71.9116 191.134 71.9116H178.642C175.748 71.9116 173.405 69.5677 173.405 66.6785C173.405 65.2314 173.988 63.9243 174.938 62.9768L174.939 62.9762C175.887 62.028 177.195 61.4419 178.642 61.4419H191.134C192.22 61.4419 193.23 61.7713 194.067 62.3386C195.459 63.2845 196.371 64.872 196.371 66.6785C196.371 68.1252 195.788 69.429 194.837 70.3767Z" fill="#FCFCFC" stroke="#FCFCFC"/>
<path d="M196.871 66.6784C196.871 68.263 196.232 69.6928 195.19 70.7308C194.932 70.9886 194.65 71.2189 194.348 71.4251C193.564 71.9579 192.643 72.2982 191.646 72.3875C191.478 72.4013 191.306 72.4116 191.134 72.4116H185.63V60.9453H191.134C191.306 60.9453 191.478 60.9556 191.646 60.9694C192.639 61.0553 193.564 61.3956 194.348 61.9283C195.871 62.956 196.871 64.6987 196.871 66.6784Z" fill="#1D232A"/>
<path d="M174.874 66.3862L178.356 76.4811C179.054 78.509 177.549 80.6194 175.404 80.6194H167.288" fill="#8F5049"/>
<path d="M175.404 81.1385H167.288C167.002 81.1385 166.772 80.9082 166.772 80.6229C166.772 80.3376 167.002 80.1073 167.288 80.1073H175.404C176.256 80.1073 177.029 79.7086 177.524 79.0143C178.019 78.32 178.143 77.4573 177.865 76.653L174.383 66.5582C174.29 66.2901 174.434 65.9945 174.702 65.9017C174.97 65.8089 175.266 65.9532 175.359 66.2213L178.841 76.3162C179.229 77.4436 179.054 78.6431 178.363 79.6124C177.672 80.5817 176.593 81.1385 175.404 81.1385Z" fill="#1D232A"/>
<path d="M173.497 70.3767L173.496 70.3773C173.262 70.6112 173.005 70.8218 172.727 71.0117C172.013 71.497 171.173 71.8074 170.263 71.8894C170.102 71.9025 169.946 71.9116 169.794 71.9116H157.302C154.408 71.9116 152.065 69.5677 152.065 66.6785C152.065 65.2314 152.648 63.9243 153.599 62.9768C154.551 62.0277 155.856 61.4419 157.302 61.4419H169.794C169.946 61.4419 170.103 61.451 170.264 61.4642C171.17 61.5428 172.013 61.8531 172.727 62.3384L172.727 62.3389C174.119 63.281 175.031 64.8714 175.031 66.6785C175.031 68.1252 174.448 69.429 173.497 70.3767Z" fill="#FCFCFC" stroke="#FCFCFC"/>
<path d="M175.531 66.6784C175.531 68.263 174.891 69.6928 173.85 70.7308C173.592 70.9886 173.31 71.2189 173.008 71.4251C172.224 71.9579 171.303 72.2982 170.306 72.3875C170.137 72.4013 169.965 72.4116 169.793 72.4116H164.29V60.9453H169.793C169.965 60.9453 170.137 60.9556 170.306 60.9694C171.299 61.0553 172.224 61.3956 173.008 61.9283C174.53 62.956 175.531 64.6987 175.531 66.6784Z" fill="#1D232A"/>
<path d="M177.903 50.923C177.305 50.923 176.7 50.7409 176.181 50.3593C174.878 49.4073 174.592 47.5787 175.545 46.276C178.075 42.8149 182.564 43.3201 184.819 44.1656C186.332 44.7328 187.095 46.417 186.527 47.9259C185.964 49.4313 184.29 50.1944 182.784 49.6444C182.275 49.4657 180.684 49.1426 180.257 49.7235C179.694 50.5071 178.803 50.923 177.903 50.923Z" fill="#1D232A"/>
<path d="M162.448 61.6847C161.231 61.6847 159.729 61.3478 158.092 60.2273C156.762 59.3165 156.418 57.4982 157.333 56.1646C158.244 54.8345 160.062 54.4908 161.396 55.405C161.743 55.6422 162.234 55.9103 162.599 55.8244C163.132 55.7006 163.664 54.972 163.716 54.8792C164.51 53.4734 166.291 52.975 167.697 53.769C169.103 54.5595 169.601 56.3434 168.807 57.7492C168.632 58.0585 167.013 60.7979 163.922 61.5163C163.499 61.6159 163.004 61.6847 162.448 61.6847Z" fill="#1D232A"/>
<path d="M126.546 42.4191L127.045 42.4611C127.045 42.4567 127.046 42.4545 127.046 42.4533C127.047 42.4519 127.048 42.4505 127.05 42.4493C127.051 42.4481 127.053 42.4474 127.054 42.4469C127.055 42.4466 127.057 42.4461 127.061 42.4464C127.066 42.4468 127.068 42.4477 127.069 42.4484C127.07 42.4491 127.072 42.4502 127.073 42.4516C127.074 42.453 127.075 42.4545 127.075 42.4558C127.076 42.4568 127.076 42.4588 127.076 42.463L127.076 42.4636C126.501 49.3784 129.751 53.2049 132.593 55.1825L132.594 55.1834C132.596 55.1847 132.597 55.1857 132.597 55.1868C132.598 55.1883 132.599 55.1905 132.6 55.1935C132.6 55.1965 132.6 55.1991 132.6 55.201C132.599 55.2024 132.599 55.2037 132.598 55.2055C132.596 55.2088 132.594 55.2104 132.593 55.2112C132.592 55.212 132.591 55.2123 132.591 55.2125C132.591 55.2126 132.588 55.2139 132.583 55.2139C132.582 55.2139 132.582 55.2139 132.582 55.2138C132.582 55.2138 132.582 55.2138 132.582 55.2138L132.58 55.2132C132.58 55.2129 132.579 55.2125 132.578 55.2118C132.577 55.2113 132.576 55.2107 132.575 55.21L132.29 55.6211L132.576 55.2106C129.74 53.238 126.464 49.4404 127.045 42.4605L126.546 42.4191ZM126.546 42.4191C126.57 42.1338 126.818 41.9241 127.103 41.9482C127.388 41.9722 127.598 42.2197 127.574 42.505C127.017 49.2074 130.152 52.8748 132.878 54.7721L126.546 42.4191Z" fill="#FCFCFC" stroke="#FCFCFC"/>
<path d="M131.761 39.872L131.761 39.872L131.76 39.8734C131.669 40.0234 129.516 43.5954 131.762 47.2264L131.762 47.2264L131.764 47.2294C131.765 47.231 131.765 47.2316 131.765 47.2321C131.765 47.233 131.765 47.2346 131.765 47.2366C131.764 47.2387 131.764 47.2402 131.763 47.2411C131.763 47.2416 131.762 47.2425 131.76 47.2437L131.745 47.2528C131.744 47.2525 131.743 47.2521 131.742 47.2516C131.741 47.2509 131.74 47.25 131.738 47.2489C131.737 47.2479 131.736 47.2464 131.734 47.2439C129.493 43.6232 131.62 40.0463 131.735 39.8594C131.736 39.8567 131.738 39.8551 131.74 39.8539C131.742 39.8525 131.744 39.8513 131.747 39.8506C131.75 39.85 131.752 39.85 131.753 39.8502C131.754 39.8503 131.754 39.8504 131.755 39.8507C131.757 39.8521 131.758 39.8535 131.759 39.8548C131.761 39.8568 131.762 39.8593 131.762 39.8621C131.763 39.8649 131.763 39.867 131.763 39.8683C131.763 39.8691 131.762 39.8702 131.761 39.872Z" fill="#FCFCFC" stroke="#FCFCFC"/>
<path d="M170.378 88.7348C167.669 88.7348 165.177 87.6589 162.932 85.5142C162.726 85.3183 162.719 84.9917 162.915 84.7855C163.111 84.5793 163.438 84.5724 163.644 84.7683C166.607 87.5971 170.044 88.3807 173.86 87.0918C174.132 87.0025 174.424 87.1468 174.513 87.4149C174.603 87.683 174.458 87.9786 174.19 88.068C172.877 88.5148 171.605 88.7348 170.378 88.7348Z" fill="#1D232A"/>
<path d="M259.189 235.737L102.828 241.9L101.46 214.114L99.208 158.642C100.483 140.12 111.473 136.504 128.636 135.033C133.325 134.631 137.976 134.448 142.569 134.129C161.777 132.788 180.055 131.135 196.926 129.014C207.806 127.643 218.101 126.075 227.695 124.271C237.616 124.271 249.98 143.986 249.98 153.902L259.189 235.737Z" fill="#00A868"/>
<path d="M76.9369 12.9825L5.94385 17.6348L11.9684 109.55L82.9615 104.897L76.9369 12.9825Z" fill="#E8E9EA"/>
<path d="M17.9321 35.7479C17.664 35.7479 17.4371 35.5382 17.4165 35.2667C17.3993 34.9814 17.6124 34.7374 17.8977 34.7202L67.3084 31.4824C67.6006 31.4652 67.8377 31.6783 67.8549 31.9636C67.8721 32.2489 67.659 32.4929 67.3737 32.5101L17.9631 35.7445C17.9527 35.7479 17.9424 35.7479 17.9321 35.7479Z" fill="#1D232A"/>
<path d="M52.5408 47.259C52.2726 47.259 52.0458 47.0493 52.0251 46.7778C52.008 46.4925 52.2211 46.2485 52.5064 46.2313L68.2055 45.2036C68.4942 45.1864 68.7348 45.3995 68.752 45.6848C68.7692 45.9701 68.5561 46.2141 68.2708 46.2313L52.5717 47.259C52.5648 47.259 52.5545 47.259 52.5408 47.259Z" fill="#1D232A"/>
<path d="M18.8291 49.4656C18.561 49.4656 18.3341 49.2559 18.3135 48.9844C18.2963 48.6991 18.5094 48.4551 18.7947 48.4379L42.675 46.874C42.9603 46.8568 43.2044 47.0699 43.2216 47.3552C43.2388 47.6405 43.0257 47.8845 42.7403 47.9017L18.86 49.4656C18.8532 49.4656 18.8394 49.4656 18.8291 49.4656Z" fill="#1D232A"/>
<path d="M53.0391 54.8239C52.7709 54.8239 52.5441 54.6143 52.5234 54.3428C52.5062 54.0575 52.7194 53.8134 53.0047 53.7962L68.7037 52.7685C68.9891 52.7514 69.2331 52.9645 69.2503 53.2497C69.2675 53.535 69.0544 53.7791 68.7691 53.7962L53.07 54.8239C53.0597 54.8239 53.0494 54.8239 53.0391 54.8239Z" fill="#1D232A"/>
<path d="M19.324 57.0305C19.0558 57.0305 18.829 56.8208 18.8083 56.5493C18.7912 56.264 19.0043 56.0199 19.2896 56.0028L43.1699 54.4389C43.4587 54.4182 43.6993 54.6348 43.7165 54.9201C43.7337 55.2053 43.5205 55.4494 43.2352 55.4666L19.3549 57.0305C19.348 57.0305 19.3343 57.0305 19.324 57.0305Z" fill="#1D232A"/>
<path d="M38.7496 88.9583C38.4814 88.9583 38.2546 88.7487 38.2339 88.4771L37.5602 78.3273C37.5396 78.042 37.7561 77.798 38.0414 77.7773C38.3302 77.7602 38.5708 77.9733 38.5914 78.2585L39.2652 88.4084C39.2858 88.6937 39.0693 88.9377 38.7839 88.9583C38.7736 88.9583 38.7599 88.9583 38.7496 88.9583Z" fill="#1D232A"/>
<path d="M43.9297 88.6214C43.6616 88.6214 43.4347 88.4117 43.4141 88.1402L42.7404 77.9904C42.7197 77.7051 42.9363 77.461 43.2216 77.4404C43.5104 77.4232 43.751 77.6363 43.7716 77.9216L44.4454 88.0715C44.466 88.3567 44.2494 88.6008 43.9641 88.6214C43.9538 88.6214 43.9435 88.6214 43.9297 88.6214Z" fill="#1D232A"/>
<path d="M49.1136 88.2814C48.8455 88.2814 48.6186 88.0718 48.598 87.8003L47.9242 77.6504C47.9036 77.3651 48.1201 77.1211 48.4055 77.1005C48.6942 77.0799 48.9348 77.2964 48.9555 77.5817L49.6292 87.7315C49.6498 88.0168 49.4333 88.2608 49.148 88.2814C49.1342 88.2814 49.1239 88.2814 49.1136 88.2814Z" fill="#1D232A"/>
<path d="M54.294 87.9446C54.0259 87.9446 53.799 87.735 53.7784 87.4634L53.1046 77.3136C53.084 77.0283 53.3006 76.7843 53.5859 76.7637C53.8746 76.7465 54.1152 76.9596 54.1359 77.2449L54.8096 87.3947C54.8302 87.68 54.6137 87.924 54.3284 87.9446C54.3181 87.9412 54.3043 87.9446 54.294 87.9446Z" fill="#1D232A"/>
<path d="M59.4742 87.6043C59.206 87.6043 58.9792 87.3947 58.9585 87.1231L58.2848 76.9733C58.2642 76.688 58.4807 76.444 58.7661 76.4233C59.0548 76.4061 59.2954 76.6193 59.316 76.9045L59.9898 87.0544C60.0104 87.3397 59.7939 87.5837 59.5085 87.6043C59.4982 87.6043 59.4879 87.6043 59.4742 87.6043Z" fill="#1D232A"/>
<path d="M64.658 87.2639C64.3899 87.2639 64.163 87.0542 64.1424 86.7827L63.4686 76.6328C63.448 76.3476 63.6646 76.1035 63.9499 76.0829C64.2386 76.0623 64.4793 76.2788 64.4999 76.5641L65.1737 86.7139C65.1943 86.9992 64.9777 87.2433 64.6924 87.2639C64.6787 87.2639 64.6683 87.2639 64.658 87.2639Z" fill="#1D232A"/>
<path d="M69.8385 86.9271C69.5703 86.9271 69.3434 86.7174 69.3228 86.4459L68.6491 76.296C68.6284 76.0107 68.845 75.7667 69.1303 75.7461C69.4191 75.7289 69.6597 75.942 69.6803 76.2273L70.3541 86.3771C70.3747 86.6624 70.1581 86.9064 69.8728 86.9271C69.8625 86.9271 69.8488 86.9271 69.8385 86.9271Z" fill="#1D232A"/>
<path d="M196.922 129.014C195.685 135.311 191.233 152.627 172.904 155.659C151.588 159.182 144.407 140.979 142.565 134.129C145.012 133.957 147.439 133.781 149.856 133.599C150.258 133.572 150.66 133.537 151.062 133.506C151.65 133.462 152.242 133.421 152.829 133.369C162.678 132.609 172.244 131.76 181.471 130.788C181.742 130.764 182.014 130.733 182.285 130.702C182.746 130.654 183.207 130.606 183.664 130.554C188.17 130.069 192.594 129.554 196.922 129.014Z" fill="#8F5049"/>
<path d="M101.652 218.531C101.377 218.531 101.147 218.314 101.136 218.036L99.9676 188.927C99.9573 188.642 100.177 188.401 100.463 188.391C100.748 188.384 100.989 188.6 100.999 188.886L102.168 217.995C102.178 218.28 101.958 218.521 101.673 218.531C101.666 218.531 101.659 218.531 101.652 218.531Z" fill="#1D232A"/>
<path d="M250.489 161.554L253.669 186.714L256.491 189.089L260.863 183.201L250.489 161.554Z" fill="#1D232A"/>
<path d="M261.194 180.475C261.015 180.475 260.843 180.382 260.747 180.217L250.046 161.812C249.901 161.564 249.987 161.251 250.231 161.107C250.479 160.963 250.792 161.048 250.936 161.293L261.637 179.698C261.782 179.946 261.696 180.259 261.452 180.403C261.369 180.451 261.28 180.475 261.194 180.475Z" fill="#1D232A"/>
<path d="M182.285 130.702C181.694 132.964 179.917 135.047 177.383 136.597C179.793 134.706 180.941 132.366 181.467 130.788C172.241 131.761 162.674 132.613 152.826 133.369C156.222 140.336 162.166 142.79 167.466 142.79C168.422 142.79 169.353 142.711 170.244 142.564C171.846 142.302 173.368 141.831 174.774 141.192C172.956 142.223 170.904 142.959 168.711 143.309C165.823 143.77 156.215 144.368 151.059 133.507C150.657 133.538 150.255 133.572 149.853 133.599C153.579 141.776 160.22 144.653 166.088 144.653C167.047 144.653 167.989 144.578 168.889 144.433C176.641 143.196 182.746 137.418 183.664 130.554C183.207 130.606 182.746 130.654 182.285 130.702ZM170.065 141.446C164.507 142.361 159.584 140.546 156.191 136.504C157.597 137.727 159.23 138.69 161.066 139.353C163.025 140.061 165.204 140.419 167.439 140.419C168.766 140.419 170.11 140.292 171.437 140.037C174.372 139.474 176.957 138.377 178.985 136.927C176.751 139.202 173.613 140.862 170.065 141.446Z" fill="#1D232A"/>
<path d="M335.935 36.7239C342.827 38.5181 348.857 43.6291 350.465 49.8984C352.449 43.6085 357.072 38.5146 363.899 36.7239C357.261 34.9263 352.126 29.554 350.465 22.3979C349.156 29.6125 344.109 35.0053 335.935 36.7239Z" fill="#F1BD38"/>
<path d="M320.951 29.5952C325.323 30.7329 329.125 33.9535 330.146 37.9302C331.404 33.9432 334.357 30.7123 338.685 29.5746C334.474 28.4334 331.218 25.0272 330.167 20.4902C328.836 25.0204 325.337 28.4334 320.951 29.5952Z" fill="#F1BD38"/>
<path d="M53.702 152.992C37.6488 162.557 24.5932 152.363 22.1973 149.273C19.9801 146.413 18.5982 140.886 20.9529 137.762C22.7404 135.39 28.0926 133.05 34.2217 139.047C36.2223 141.079 39.6392 142.646 44.8298 139.687" fill="#8F5049"/>
<path d="M20.3724 146.245C20.1593 146.245 19.9565 146.111 19.8843 145.898C18.7499 142.588 18.9905 139.508 20.5408 137.453C21.4277 136.277 23.2702 134.95 25.7796 134.761C27.8146 134.61 30.9874 135.163 34.5796 138.68C36.3843 140.512 39.5743 142.089 44.5724 139.24C44.8199 139.099 45.1362 139.185 45.2771 139.432C45.418 139.68 45.3321 139.996 45.0846 140.137C39.5158 143.309 35.903 141.495 33.8508 139.412C30.5405 136.171 27.6771 135.655 25.8552 135.789C23.6896 135.951 22.1118 137.075 21.3624 138.071C20.0218 139.852 19.8362 142.581 20.8571 145.564C20.9499 145.832 20.8055 146.128 20.5374 146.221C20.4858 146.234 20.4274 146.245 20.3724 146.245Z" fill="#1D232A"/>
<path d="M19.0351 145.756C18.9491 145.756 18.8598 145.736 18.7773 145.688C9.27946 140.223 7.83914 131.998 7.78071 131.65C7.73602 131.369 7.92508 131.104 8.20696 131.059C8.48883 131.015 8.75352 131.204 8.79821 131.485C8.81196 131.565 10.2351 139.583 19.2895 144.794C19.537 144.935 19.6229 145.251 19.4785 145.499C19.3857 145.664 19.2138 145.756 19.0351 145.756Z" fill="#1D232A"/>
<path d="M42.1967 157.529C41.3099 157.529 40.808 157.505 40.7839 157.505C40.4986 157.491 40.282 157.247 40.2958 156.961C40.3095 156.676 40.5467 156.46 40.8389 156.473C40.9627 156.48 53.3411 157.061 65.5511 152.146C65.8158 152.04 66.1148 152.167 66.2214 152.431C66.328 152.696 66.2008 152.995 65.9361 153.102C55.9398 157.126 45.837 157.529 42.1967 157.529Z" fill="#1D232A"/>
<path d="M39.3029 135.679C30.4272 135.679 25.3844 131.417 25.161 131.224C24.9444 131.039 24.9204 130.712 25.106 130.499C25.2916 130.283 25.6182 130.258 25.8313 130.444C25.8863 130.492 31.5685 135.27 41.2485 134.579C41.5338 134.558 41.7779 134.771 41.7985 135.057C41.8191 135.342 41.606 135.586 41.3207 135.607C40.6297 135.655 39.956 135.679 39.3029 135.679Z" fill="#1D232A"/>
<path d="M314.667 42.6943H311.501V51.6549H314.667V42.6943Z" fill="#1D232A"/>
</g>
<defs>
<clipPath id="clip0_722_6625">
<rect width="363.746" height="253.688" fill="white" transform="translate(0.156494 0.774902)"/>
</clipPath>
</defs>
</svg>
