<svg width="140" height="124" viewBox="0 0 140 124" fill="none" xmlns="http://www.w3.org/2000/svg">
<g clip-path="url(#clip0_701_29271)">
<path d="M139.915 19.6339L127.62 123.081L60.2973 115.079L50.1698 113.876L47.8848 113.604L47.7273 113.586L48.1073 110.394L48.4373 107.629L54.5173 56.4489L59.7048 12.7989L60.0198 10.1414L80.7098 12.5989L139.915 19.6339Z" fill="#00A868"/>
<path d="M106.05 96.144C105.887 96.144 105.737 96.0365 105.69 95.8715L82.2949 13.264C82.2374 13.064 82.3549 12.8565 82.5524 12.8015C82.7524 12.744 82.9599 12.8615 83.0149 13.059L106.412 95.6665C106.47 95.8665 106.352 96.074 106.155 96.129C106.117 96.139 106.085 96.144 106.05 96.144Z" fill="#1D232A"/>
<path d="M106.602 104.784L55.8972 114.181L50.1697 113.494L50.4147 110.609L54.5172 55.9015L57.8297 11.744L59.8547 10.814L82.6573 13.1615L106.602 104.784Z" fill="#1D232A" stroke="#1D232A" stroke-width="3" stroke-miterlimit="10" stroke-linecap="round" stroke-linejoin="round"/>
<path d="M78.6172 0.918407L0.085144 18.4174L22.7432 120.103L101.275 102.604L78.6172 0.918407Z" fill="#E8E9EA"/>
<path d="M15.9273 35.0265C15.7548 35.0265 15.5998 34.9065 15.5623 34.734C15.5173 34.5315 15.6448 34.3315 15.8473 34.2865L71.0797 21.9765C71.2822 21.929 71.4822 22.059 71.5272 22.2615C71.5722 22.464 71.4447 22.664 71.2422 22.709L16.0098 35.019C15.9823 35.024 15.9548 35.0265 15.9273 35.0265Z" fill="#1D232A"/>
<path d="M19.5174 51.1339C19.3449 51.1339 19.1899 51.0139 19.1524 50.8414C19.1074 50.6389 19.2349 50.4389 19.4374 50.3939L74.6699 38.0839C74.8699 38.0364 75.0724 38.1664 75.1174 38.3689C75.1624 38.5714 75.0349 38.7714 74.8324 38.8164L19.5999 51.1239C19.5724 51.1289 19.5449 51.1339 19.5174 51.1339Z" fill="#1D232A"/>
<path d="M23.1072 67.239C22.9347 67.239 22.7797 67.119 22.7422 66.9465C22.6972 66.744 22.8247 66.544 23.0272 66.499L78.2598 54.189C78.4623 54.144 78.6623 54.2715 78.7073 54.474C78.7523 54.6765 78.6248 54.8765 78.4223 54.9215L23.1897 67.229C23.1622 67.234 23.1347 67.239 23.1072 67.239Z" fill="#1D232A"/>
<path d="M26.6972 83.344C26.5247 83.344 26.3697 83.2265 26.3322 83.0515C26.2872 82.849 26.4147 82.649 26.6172 82.604L81.8498 70.2939C82.0523 70.2489 82.2523 70.3764 82.2973 70.5789C82.3423 70.7814 82.2148 70.9814 82.0123 71.0264L26.7797 83.3365C26.7497 83.3415 26.7222 83.344 26.6972 83.344Z" fill="#1D232A"/>
<path d="M30.2848 99.4489C30.1123 99.4489 29.9573 99.3314 29.9198 99.1564C29.8748 98.9539 30.0023 98.7539 30.2048 98.7089L69.1798 90.0214C69.3798 89.9764 69.5823 90.1039 69.6273 90.3064C69.6723 90.5089 69.5448 90.7089 69.3423 90.7539L30.3673 99.4414C30.3398 99.4464 30.3123 99.4489 30.2848 99.4489Z" fill="#1D232A"/>
</g>
<defs>
<clipPath id="clip0_701_29271">
<rect width="139.83" height="122.163" fill="white" transform="translate(0.085144 0.918457)"/>
</clipPath>
</defs>
</svg>
